<svg width="44" height="44" viewBox="0 0 44 44" fill="none" xmlns="http://www.w3.org/2000/svg">
    <path fill-rule="evenodd" clip-rule="evenodd" d="M4.77344 32.9143C4.77344 35.1865 6.61547 37.0286 8.88772 37.0286H15.1359C16.4077 37.0286 17.6079 36.4405 18.3872 35.4355L19.9488 33.4217C20.7281 32.4167 21.9284 31.8286 23.2001 31.8286H35.9417C38.2139 31.8286 40.056 29.9865 40.056 27.7143V4.11428C40.056 1.84202 38.2139 -7.62939e-06 35.9417 -7.62939e-06H8.88773C6.61547 -7.62939e-06 4.77344 1.84202 4.77344 4.11428V32.9143Z" fill="#0080FF"/>
    <path fill-rule="evenodd" clip-rule="evenodd" d="M0.440918 10.9714C0.440918 7.94175 2.89696 5.48572 5.92663 5.48572H13.2322C14.7682 5.48572 16.2339 6.12969 17.2728 7.26105L18.9642 9.10298C20.0031 10.2343 21.4687 10.8783 23.0047 10.8783H38.2846C41.3143 10.8783 43.7703 13.3344 43.7703 16.364V38.4C43.7703 41.4297 41.3143 43.8857 38.2846 43.8857H5.92663C2.89695 43.8857 0.440918 41.4297 0.440918 38.4V10.9714Z" fill="url(#paint0_linear)"/>
    <path fill-rule="evenodd" clip-rule="evenodd" d="M17.0392 27.5232C15.8677 27.5232 15.2356 26.1492 15.9977 25.2595L21.3219 19.0444C21.8692 18.4054 22.8576 18.4054 23.4049 19.0444L28.7291 25.2595C29.4912 26.1492 28.8591 27.5232 27.6876 27.5232H25.7467C25.368 27.5232 25.061 27.8302 25.061 28.2089V30.8571C25.061 31.6145 24.447 32.2286 23.6895 32.2286H21.0373C20.2798 32.2286 19.6658 31.6145 19.6658 30.8571V28.2089C19.6658 27.8302 19.3588 27.5232 18.9801 27.5232H17.0392Z" fill="white" fill-opacity="0.9"/>
    <defs>
        <linearGradient id="paint0_linear" x1="-41.1364" y1="-2.31042" x2="-18.6843" y2="67.0217" gradientUnits="userSpaceOnUse">
            <stop stop-color="#8FC6FE"/>
            <stop offset="1" stop-color="#56AAFF"/>
        </linearGradient>
    </defs>
</svg>
